<svg data-v-fde0c5aa="" xmlns="http://www.w3.org/2000/svg" viewBox="0 0 300 300" class="iconAbove"><!----><defs data-v-fde0c5aa=""><!----></defs><rect data-v-fde0c5aa="" fill="#000000" x="0" y="0" width="300px" height="300px" class="logo-background-square"></rect><defs data-v-fde0c5aa=""><!----></defs><g data-v-fde0c5aa="" id="df1bc39a-5010-4357-9356-2f5a2963572d" fill="#EEB734" transform="matrix(2.3589186637414423,0,0,2.3589186637414423,19.03284335630216,162.46760994077908)"><path d="M5.05 14.35L6.29 9.06L6.78 6.92L6.82 6.92L7.29 9.06L8.53 14.35L10.95 14.35L13.22 4.58L11.20 4.58L10.26 9.27L9.74 11.98L9.70 11.98L9.10 9.27L8.01 4.58L5.68 4.58L4.61 9.27L3.99 11.98L3.95 11.98L3.43 9.27L2.51 4.58L0.41 4.58L2.62 14.35ZM20.75 14.35L20.75 12.74L20.06 12.74L20.06 9.52C20.06 7.78 19.00 6.83 16.93 6.83C15.39 6.83 14.55 7.36 13.96 8.23L15.19 9.32C15.51 8.88 15.95 8.46 16.77 8.46C17.64 8.46 17.99 8.90 17.99 9.62L17.99 10.08L16.83 10.08C14.88 10.08 13.68 10.82 13.68 12.38C13.68 13.65 14.49 14.52 15.96 14.52C17.08 14.52 17.89 14.01 18.12 13.06L18.20 13.06C18.33 13.85 18.86 14.35 19.60 14.35ZM16.73 13.08C16.11 13.08 15.76 12.82 15.76 12.29L15.76 12.08C15.76 11.55 16.18 11.26 16.98 11.26L17.99 11.26L17.99 12.12C17.99 12.80 17.42 13.08 16.73 13.08ZM25.86 14.35L25.86 12.74L24.51 12.74L24.51 8.61L25.97 8.61L25.97 7.00L24.51 7.00L24.51 5.01L22.65 5.01L22.65 6.22C22.65 6.72 22.48 7.00 21.92 7.00L21.41 7.00L21.41 8.61L22.44 8.61L22.44 12.21C22.44 13.61 23.20 14.35 24.63 14.35ZM30.32 14.52C31.77 14.52 32.82 13.89 33.31 12.49L31.70 11.79C31.49 12.38 31.15 12.89 30.32 12.89C29.48 12.89 29.05 12.29 29.05 11.37L29.05 10.00C29.05 9.07 29.48 8.47 30.32 8.47C31.05 8.47 31.46 8.92 31.58 9.48L33.26 8.75C32.83 7.55 31.81 6.83 30.32 6.83C28.11 6.83 26.89 8.32 26.89 10.67C26.89 13.02 28.11 14.52 30.32 14.52ZM34.59 14.35L36.67 14.35L36.67 9.59C36.67 8.86 37.32 8.51 38.00 8.51C38.75 8.51 39.02 8.97 39.02 9.91L39.02 14.35L41.09 14.35L41.09 9.74C41.09 7.90 40.29 6.83 38.79 6.83C37.63 6.83 37.02 7.48 36.75 8.25L36.67 8.25L36.67 3.99L34.59 3.99ZM50.62 14.35L50.62 12.66L49.36 12.66L49.36 6.27L50.62 6.27L50.62 4.58L45.98 4.58L45.98 6.27L47.24 6.27L47.24 12.66L45.98 12.66L45.98 14.35ZM56.10 14.35L56.10 12.74L54.75 12.74L54.75 8.61L56.21 8.61L56.21 7.00L54.75 7.00L54.75 5.01L52.89 5.01L52.89 6.22C52.89 6.72 52.72 7.00 52.16 7.00L51.65 7.00L51.65 8.61L52.68 8.61L52.68 12.21C52.68 13.61 53.44 14.35 54.87 14.35ZM64.99 14.52C67.58 14.52 69.29 12.78 69.29 9.46C69.29 6.15 67.58 4.41 64.99 4.41C62.40 4.41 60.69 6.15 60.69 9.46C60.69 12.78 62.40 14.52 64.99 14.52ZM64.99 12.63C63.71 12.63 62.94 11.75 62.94 10.19L62.94 8.74C62.94 7.18 63.71 6.30 64.99 6.30C66.26 6.30 67.03 7.18 67.03 8.74L67.03 10.19C67.03 11.75 66.26 12.63 64.99 12.63ZM75.29 14.35L77.36 14.35L77.36 7.00L75.29 7.00L75.29 11.77C75.29 12.47 74.63 12.84 73.99 12.84C73.23 12.84 72.94 12.33 72.94 11.44L72.94 7.00L70.87 7.00L70.87 11.62C70.87 13.47 71.67 14.52 73.16 14.52C74.37 14.52 74.97 13.86 75.22 13.12L75.29 13.12ZM83.10 14.35L83.10 12.74L81.76 12.74L81.76 8.61L83.22 8.61L83.22 7.00L81.76 7.00L81.76 5.01L79.90 5.01L79.90 6.22C79.90 6.72 79.73 7.00 79.17 7.00L78.65 7.00L78.65 8.61L79.69 8.61L79.69 12.21C79.69 13.61 80.44 14.35 81.87 14.35ZM87.15 14.52C89.04 14.52 90.30 13.48 90.30 12.07C90.30 10.79 89.47 10.07 87.88 9.86L87.05 9.74C86.45 9.66 86.28 9.45 86.28 9.06C86.28 8.69 86.56 8.44 87.26 8.44C87.88 8.44 88.49 8.74 88.96 9.20L90.15 7.98C89.40 7.25 88.69 6.83 87.15 6.83C85.40 6.83 84.29 7.81 84.29 9.23C84.29 10.56 85.11 11.28 86.77 11.49L87.57 11.59C88.09 11.66 88.31 11.84 88.31 12.21C88.31 12.64 88.03 12.91 87.22 12.91C86.42 12.91 85.79 12.54 85.27 11.97L84.06 13.20C84.81 14.04 85.74 14.52 87.15 14.52ZM92.75 6.22C93.59 6.22 93.95 5.78 93.95 5.19L93.95 4.89C93.95 4.30 93.59 3.86 92.75 3.86C91.91 3.86 91.55 4.30 91.55 4.89L91.55 5.19C91.55 5.78 91.91 6.22 92.75 6.22ZM91.71 14.35L93.79 14.35L93.79 7.00L91.71 7.00ZM100.23 14.35L102.30 14.35L102.30 3.99L100.23 3.99L100.23 8.23L100.16 8.23C99.95 7.42 99.13 6.83 98.18 6.83C96.32 6.83 95.35 8.18 95.35 10.67C95.35 13.16 96.32 14.52 98.18 14.52C99.13 14.52 99.95 13.92 100.16 13.12L100.23 13.12ZM98.87 12.84C98.08 12.84 97.51 12.24 97.51 11.31L97.51 10.04C97.51 9.11 98.08 8.51 98.87 8.51C99.65 8.51 100.23 8.92 100.23 9.59L100.23 11.76C100.23 12.43 99.65 12.84 98.87 12.84ZM107.30 14.52C108.64 14.52 109.72 14.06 110.38 13.30L109.34 12.01C108.88 12.49 108.40 12.89 107.53 12.89C106.43 12.89 105.91 12.28 105.91 11.31L105.91 11.20L110.63 11.20L110.63 10.58C110.63 8.60 109.65 6.83 107.21 6.83C105 6.83 103.77 8.34 103.77 10.67C103.77 13.02 105.04 14.52 107.30 14.52ZM107.25 8.36C108.08 8.36 108.49 8.96 108.49 9.86L108.49 9.98L105.91 9.98L105.91 9.87C105.91 8.96 106.43 8.36 107.25 8.36Z"></path></g><defs data-v-fde0c5aa=""><!----></defs><g data-v-fde0c5aa="" id="f514f46d-9ded-4737-9dd7-b781ec39ef15" stroke="none" fill="#1CAA82" transform="matrix(0.8847866094488478,0,0,0.8847866094488478,105.7606695275576,84.1871961422857)"><path d="M68.984 60.346c-4.03 0-7.559 2.633-9.499 6.57-1.229-.947-2.684-1.498-4.242-1.498-1.827 0-3.511.754-4.855 2.02-1.739-2.738-4.454-4.504-7.507-4.504a7.948 7.948 0 0 0-3.345.744 3.357 3.357 0 0 0-2.871-1.617 3.366 3.366 0 0 0-3.367 3.365c0 1.205.638 2.26 1.591 2.855a12.699 12.699 0 0 0-.829 1.965 5.393 5.393 0 0 0-.747.594c-1.199-1.891-3.075-3.109-5.182-3.109-3.62 0-6.558 3.59-6.558 8.018 0 1.479.979 2.672 2.187 2.672h8.741c.088 0 .174-.008.259-.02.076.012.154.02.234.02h16.219c.128 0 .251-.012.374-.027a2.4 2.4 0 0 0 .341.027H60.56c.163 0 .325-.02.481-.055.183.033.365.055.554.055h14.779c2.042 0 3.697-2.021 3.697-4.518 0-7.485-4.967-13.557-11.087-13.557z"></path><circle cx="68.984" cy="52.255" r="6.778"></circle><circle cx="42.881" cy="56.001" r="5.808"></circle><circle cx="55.243" cy="59.597" r="4.876"></circle><circle cx="28.131" cy="62.943" r="4.01"></circle><path d="M10 21.58v45h12.254a6.938 6.938 0 0 1-1.131-3.777c0-3.865 3.144-7.01 7.008-7.01a7.01 7.01 0 0 1 6.12 3.604c.161-.066.326-.123.493-.176a8.766 8.766 0 0 1-.669-3.361c0-4.855 3.95-8.807 8.806-8.807 3.765 0 6.977 2.379 8.234 5.709a7.807 7.807 0 0 1 8.12-.084c-.011-.188-.028-.373-.028-.564 0-5.391 4.386-9.777 9.777-9.777s9.777 4.387 9.777 9.777a9.75 9.75 0 0 1-3.066 7.094c2.59 1.656 4.684 4.244 5.972 7.373H90v-45H10zm76 41h-1.839a19.946 19.946 0 0 0-3.007-4.036 13.762 13.762 0 0 0 1.608-6.431c0-7.597-6.181-13.777-13.777-13.777-6.018 0-11.146 3.878-13.019 9.267a11.765 11.765 0 0 0-3.13.227c-2.395-2.955-6.044-4.776-9.955-4.776-5.748 0-10.624 3.807-12.238 9.032a10.937 10.937 0 0 0-2.512-.292c-5.995 0-10.887 4.819-11.005 10.787H14v-37h72V62.58z"></path></g><!----></svg>